<?xml version="1.0" encoding="UTF-8" standalone="no"?>
<svg
   width="40.429333"
   height="20"
   version="1.1"
   id="svg38"
   xmlns="http://www.w3.org/2000/svg"
   xmlns:svg="http://www.w3.org/2000/svg">
  <defs
     id="defs42" />
  <linearGradient
     id="a"
     x1="45.483002"
     x2="45.483002"
     y2="45.000999"
     gradientTransform="scale(0.44444447)"
     gradientUnits="userSpaceOnUse">
    <stop
       stop-color="#00AEEF"
       offset="0"
       id="stop23" />
    <stop
       stop-color="#0097DC"
       offset=".212"
       id="stop25" />
    <stop
       stop-color="#007CC5"
       offset=".519"
       id="stop27" />
    <stop
       stop-color="#006CB8"
       offset=".792"
       id="stop29" />
    <stop
       stop-color="#0066B3"
       offset="1"
       id="stop31" />
  </linearGradient>
  <path
     d="M 0,20 H 20.432888 L 40.429334,0 H 0 v 20"
     clip-rule="evenodd"
     fill="url(#a)"
     fill-rule="evenodd"
     stroke-width="0.444444"
     id="path34"
     style="fill:url(#a)" />
  <path
     d="M 23.992888,4 H 20 l 0.01335,9.391112 -3.476889,-9.3946676 h -3.44756 L 10.1209,11.842222 C 9.8053444,9.8457778 7.7413444,9.1568888 6.1173444,8.6408888 5.0449,8.2964444 3.9066778,7.7897778 3.9182334,7.2297778 3.9271222,6.7702222 4.5271222,6.344 5.7195666,6.4075556 c 0.8,0.043111 1.5066668,0.1075558 2.9124446,0.7866666 L 10.014233,4.7853334 C 8.7324556,4.1328888 6.9600112,3.7208888 5.5066778,3.7195556 h -0.00888 c -1.6946666,0 -3.1057777,0.5488888 -3.9804444,1.4533332 C 0.90756666,5.804 0.57867778,6.6066666 0.56534444,7.4942222 0.54312222,8.7155556 0.99067778,9.5813334 1.9311222,10.273333 c 0.7946666,0.582223 1.8111112,0.960001 2.7066666,1.237333 1.1044446,0.342222 2.0066668,0.64 1.9955556,1.273778 -0.00888,0.231112 -0.096,0.447112 -0.2622222,0.621334 C 6.0955666,13.690222 5.6733444,13.796888 5.0889,13.808444 3.9613444,13.832444 3.1257888,13.655112 1.7942334,12.868 l -1.22977784,2.44 c 1.33022224,0.756444 2.74222224,1.136 4.34666664,1.136 l 0.360889,-0.0027 c 1.3964444,-0.02534 2.5297776,-0.36 3.4302222,-1.084445 0.051555,-0.04134 0.097778,-0.08312 0.1457778,-0.125333 L 8.6969,16.010236 l 3.368889,-0.01072 0.604444,-1.547556 c 0.635556,0.216889 1.358222,0.336889 2.125334,0.336889 0.747556,0 1.450666,-0.113777 2.074222,-0.318222 l 0.421334,1.528889 6.044444,0.0057 0.01466,-3.528 h 1.286222 c 3.108889,0 4.946667,-1.582223 4.946667,-4.235556 -0.001,-2.9551112 -1.787555,-4.2422223 -5.590222,-4.2422223 z m -9.197332,8.027556 c -0.464444,0 -0.9,-0.08088 -1.274668,-0.223112 l 1.260446,-3.9799996 h 0.02444 l 1.24,3.9911116 c -0.373334,0.133332 -0.798667,0.212 -1.250667,0.212 z m 9.43111,-2.2866672 H 23.349334 V 6.5333334 h 0.877778 c 1.168888,0 2.102222,0.3893332 2.102222,1.583111 C 26.32832,9.352 25.396,9.7408888 24.227112,9.7408888"
     clip-rule="evenodd"
     fill="#ffffff"
     fill-rule="evenodd"
     stroke-width="5.55556"
     id="path36" />
</svg>
